# xmcd CD database file
#
# Track frame offsets:
#	150
#	2782
#	17102
#	30450
#	49160
#	65755
#	78627
#	94307
#	110317
#	122930
#	137137
#	155855
#
# Disc length: 2282 seconds
#
# Revision: 0
# Processed by: cddbd v1.5.1PL2 Copyright (c) Steve Scherf et al.
# Submitted via: CDex 1.51
#
DISCID=a608e80c
DTITLE=Mel Besher - Who Did You Love
DYEAR=1998
DGENRE=Country
TTITLE0=Introduction - Mel and his dad, in their kitchen, in 1971
TTITLE1=A Little Bit Longer
TTITLE2=Love's Not Everything
TTITLE3=Old Soul
TTITLE4=Words Enough and Time
TTITLE5=Keep Me in the Back of Your Heart
TTITLE6=Who Did You Love
TTITLE7=In Tupelo
TTITLE8=In My View
TTITLE9=I've Had It
TTITLE10=I Don't Feel That Way Anymore
TTITLE11=Emery's Blocks
EXTD=YEAR: 1998
EXTT0=
EXTT1=
EXTT2=
EXTT3=
EXTT4=
EXTT5=
EXTT6=
EXTT7=
EXTT8=
EXTT9=
EXTT10=
EXTT11=
PLAYORDER=
